<svg xmlns="http://www.w3.org/2000/svg"
     width="128"
     height="128"
     viewBox="0 0 24 24">

  <defs>
    <linearGradient id="gradiant"
                    x1="0%"
                    y1="0%"
                    x2="100%"
                    y2="100%">
      <stop offset="0%" stop-color="#111827"/>
      <stop offset="100%" stop-color="#312E81"/>
    </linearGradient>

    <linearGradient id="tabGradient"
                    x1="0%"
                    y1="0%"
                    x2="100%"
                    y2="0%">
      <stop offset="0%" stop-color="#C4B5FD"/>
      <stop offset="100%" stop-color="#A78BFA"/>
    </linearGradient>
  </defs>

  <path
    d="M7 3H9.4A2.8 2.8 0 0 1 12 1.5A2.8 2.8 0 0 1 14.6 3H17A2 2 0 0 1 19 5V19A2 2 0 0 1 17 21H7A2 2 0 0 1 5 19V5A2 2 0 0 1 7 3Z"
    fill="url(#gradiant)"
  />

  <rect
    x="8.5"
    y="2"
    width="7"
    height="3"
    rx="1.5"
    fill="url(#tabGradient)"
  />

  <path
    d="M12 17
       C12 14.8 13.8 13 16 13
       C13.8 13 12 11.2 12 9
       C12 11.2 10.2 13 8 13
       C10.2 13 12 14.8 12 17Z"
    fill="#FFFFFF"
  />

  <path
    d="M18.5 10
       C18.5 9.2 19.2 8.5 20 8.5
       C19.2 8.5 18.5 7.8 18.5 7
       C18.5 7.8 17.8 8.5 17 8.5
       C17.8 8.5 18.5 9.2 18.5 10Z"
    fill="#FFFFFF"
    opacity="0.95"
  />

  <path
    d="M17.5 20
       C17.5 19.2 18.2 18.5 19 18.5
       C18.2 18.5 17.5 17.8 17.5 17
       C17.5 17.8 16.8 18.5 16 18.5
       C16.8 18.5 17.5 19.2 17.5 20Z"
    fill="#FFFFFF"
    opacity="0.7"
  />
</svg>